<mxfile host="app.diagrams.net" modified="2024-05-17T04:47:58.506Z" agent="Mozilla/5.0 (Windows NT 10.0; Win64; x64) AppleWebKit/537.36 (KHTML, like Gecko) Chrome/124.0.0.0 Safari/537.36" etag="NwnrpvF-KeueTh1K1jm0" version="24.4.3" type="github">
  <diagram name="Page-1" id="p_WM6cmq2U0n9Lk7jy-y">
    <mxGraphModel dx="3540" dy="2560" grid="1" gridSize="10" guides="1" tooltips="1" connect="1" arrows="1" fold="1" page="1" pageScale="1" pageWidth="827" pageHeight="1169" math="0" shadow="0">
      <root>
        <mxCell id="0" />
        <mxCell id="1" parent="0" />
        <mxCell id="N4IdexVW_4449klS3KBR-1" style="edgeStyle=orthogonalEdgeStyle;rounded=0;orthogonalLoop=1;jettySize=auto;html=1;fontSize=14;" edge="1" parent="1" source="N4IdexVW_4449klS3KBR-2" target="N4IdexVW_4449klS3KBR-4">
          <mxGeometry relative="1" as="geometry" />
        </mxCell>
        <mxCell id="N4IdexVW_4449klS3KBR-2" value="Два типа-класса, сравнимые между собой, имеющие разное колличество свойств" style="shape=parallelogram;perimeter=parallelogramPerimeter;whiteSpace=wrap;html=1;fixedSize=1;fontSize=14;" vertex="1" parent="1">
          <mxGeometry x="70" y="-260" width="230" height="120" as="geometry" />
        </mxCell>
        <mxCell id="N4IdexVW_4449klS3KBR-3" style="edgeStyle=orthogonalEdgeStyle;rounded=0;orthogonalLoop=1;jettySize=auto;html=1;fontSize=14;" edge="1" parent="1" source="N4IdexVW_4449klS3KBR-4" target="N4IdexVW_4449klS3KBR-7">
          <mxGeometry relative="1" as="geometry" />
        </mxCell>
        <mxCell id="N4IdexVW_4449klS3KBR-4" value="1. Считаем колличество свойств, совпадащих по наименованиям между двумя типами-классов&lt;div style=&quot;font-size: 14px;&quot;&gt;2. считаем колличество свойств в объединении,&lt;/div&gt;" style="rounded=0;whiteSpace=wrap;html=1;fontSize=14;" vertex="1" parent="1">
          <mxGeometry x="140" y="-70" width="240" height="140" as="geometry" />
        </mxCell>
        <mxCell id="N4IdexVW_4449klS3KBR-5" style="edgeStyle=orthogonalEdgeStyle;rounded=0;orthogonalLoop=1;jettySize=auto;html=1;entryX=0.5;entryY=0;entryDx=0;entryDy=0;fontSize=14;" edge="1" parent="1" source="N4IdexVW_4449klS3KBR-7" target="N4IdexVW_4449klS3KBR-9">
          <mxGeometry relative="1" as="geometry">
            <mxPoint x="-50" y="290" as="targetPoint" />
          </mxGeometry>
        </mxCell>
        <mxCell id="N4IdexVW_4449klS3KBR-6" style="edgeStyle=orthogonalEdgeStyle;rounded=0;orthogonalLoop=1;jettySize=auto;html=1;fontSize=14;" edge="1" parent="1" source="N4IdexVW_4449klS3KBR-7" target="N4IdexVW_4449klS3KBR-11">
          <mxGeometry relative="1" as="geometry" />
        </mxCell>
        <mxCell id="N4IdexVW_4449klS3KBR-7" value="&lt;span style=&quot;font-size: 14px;&quot;&gt;Коэффициент Жаккара, больше ли он чем 0,75?&lt;/span&gt;" style="rhombus;whiteSpace=wrap;html=1;fontSize=14;" vertex="1" parent="1">
          <mxGeometry x="155" y="130" width="210" height="130" as="geometry" />
        </mxCell>
        <mxCell id="N4IdexVW_4449klS3KBR-8" style="edgeStyle=orthogonalEdgeStyle;rounded=0;orthogonalLoop=1;jettySize=auto;html=1;entryX=0.5;entryY=0;entryDx=0;entryDy=0;fontSize=14;" edge="1" parent="1" source="N4IdexVW_4449klS3KBR-9" target="N4IdexVW_4449klS3KBR-38">
          <mxGeometry relative="1" as="geometry" />
        </mxCell>
        <mxCell id="N4IdexVW_4449klS3KBR-9" value="Типы-классы разные" style="rounded=0;whiteSpace=wrap;html=1;fontSize=14;" vertex="1" parent="1">
          <mxGeometry x="-290" y="290" width="120" height="60" as="geometry" />
        </mxCell>
        <mxCell id="N4IdexVW_4449klS3KBR-10" style="edgeStyle=orthogonalEdgeStyle;rounded=0;orthogonalLoop=1;jettySize=auto;html=1;entryX=0.5;entryY=0;entryDx=0;entryDy=0;fontSize=14;" edge="1" parent="1" source="N4IdexVW_4449klS3KBR-11" target="N4IdexVW_4449klS3KBR-16">
          <mxGeometry relative="1" as="geometry" />
        </mxCell>
        <mxCell id="N4IdexVW_4449klS3KBR-11" value="Итерация по каждому из совпадающих свойств" style="shape=loopLimit;whiteSpace=wrap;html=1;fontSize=14;" vertex="1" parent="1">
          <mxGeometry x="210" y="335" width="100" height="80" as="geometry" />
        </mxCell>
        <mxCell id="N4IdexVW_4449klS3KBR-12" style="edgeStyle=orthogonalEdgeStyle;rounded=0;orthogonalLoop=1;jettySize=auto;html=1;entryX=0.5;entryY=0;entryDx=0;entryDy=0;fontSize=14;" edge="1" parent="1" source="N4IdexVW_4449klS3KBR-16" target="N4IdexVW_4449klS3KBR-20">
          <mxGeometry relative="1" as="geometry" />
        </mxCell>
        <mxCell id="N4IdexVW_4449klS3KBR-13" value="Нет" style="edgeLabel;html=1;align=center;verticalAlign=middle;resizable=0;points=[];fontSize=14;" vertex="1" connectable="0" parent="N4IdexVW_4449klS3KBR-12">
          <mxGeometry x="-0.1285" y="-4" relative="1" as="geometry">
            <mxPoint x="-1" as="offset" />
          </mxGeometry>
        </mxCell>
        <mxCell id="N4IdexVW_4449klS3KBR-14" style="edgeStyle=orthogonalEdgeStyle;rounded=0;orthogonalLoop=1;jettySize=auto;html=1;entryX=0.5;entryY=0;entryDx=0;entryDy=0;fontSize=14;" edge="1" parent="1" source="N4IdexVW_4449klS3KBR-16" target="N4IdexVW_4449klS3KBR-18">
          <mxGeometry relative="1" as="geometry" />
        </mxCell>
        <mxCell id="N4IdexVW_4449klS3KBR-15" value="Да" style="edgeLabel;html=1;align=center;verticalAlign=middle;resizable=0;points=[];fontSize=14;" vertex="1" connectable="0" parent="N4IdexVW_4449klS3KBR-14">
          <mxGeometry x="-0.419" y="4" relative="1" as="geometry">
            <mxPoint x="-1" as="offset" />
          </mxGeometry>
        </mxCell>
        <mxCell id="N4IdexVW_4449klS3KBR-16" value="&lt;span style=&quot;font-size: 14px;&quot;&gt;свойство имеет тип-объединение?&lt;/span&gt;" style="rhombus;whiteSpace=wrap;html=1;fontSize=14;" vertex="1" parent="1">
          <mxGeometry x="130" y="480" width="260" height="100" as="geometry" />
        </mxCell>
        <mxCell id="N4IdexVW_4449klS3KBR-17" style="edgeStyle=orthogonalEdgeStyle;rounded=0;orthogonalLoop=1;jettySize=auto;html=1;entryX=0.5;entryY=0;entryDx=0;entryDy=0;fontSize=14;" edge="1" parent="1" source="N4IdexVW_4449klS3KBR-18" target="N4IdexVW_4449klS3KBR-25">
          <mxGeometry relative="1" as="geometry" />
        </mxCell>
        <mxCell id="N4IdexVW_4449klS3KBR-18" value="&lt;span style=&quot;font-size: 14px;&quot;&gt;Создаем два множества из типов, которые являются вложенными в текущее свойство, являющееся типом объединения&lt;/span&gt;" style="rounded=0;whiteSpace=wrap;html=1;fontSize=14;" vertex="1" parent="1">
          <mxGeometry x="414" y="570" width="270" height="95" as="geometry" />
        </mxCell>
        <mxCell id="N4IdexVW_4449klS3KBR-19" style="edgeStyle=orthogonalEdgeStyle;rounded=0;orthogonalLoop=1;jettySize=auto;html=1;fontSize=14;" edge="1" parent="1" source="N4IdexVW_4449klS3KBR-20" target="N4IdexVW_4449klS3KBR-25">
          <mxGeometry relative="1" as="geometry">
            <Array as="points">
              <mxPoint x="-97" y="700" />
              <mxPoint x="549" y="700" />
            </Array>
          </mxGeometry>
        </mxCell>
        <mxCell id="N4IdexVW_4449klS3KBR-20" value="&lt;span style=&quot;font-size: 14px;&quot;&gt;Создаем два множества из одного примитивного типа, соответствующего типу свойства&lt;/span&gt;" style="rounded=0;whiteSpace=wrap;html=1;fontSize=14;" vertex="1" parent="1">
          <mxGeometry x="-195" y="590" width="195" height="80" as="geometry" />
        </mxCell>
        <mxCell id="N4IdexVW_4449klS3KBR-21" style="edgeStyle=orthogonalEdgeStyle;rounded=0;orthogonalLoop=1;jettySize=auto;html=1;entryX=0.5;entryY=0;entryDx=0;entryDy=0;fontSize=14;" edge="1" parent="1" source="N4IdexVW_4449klS3KBR-25" target="N4IdexVW_4449klS3KBR-27">
          <mxGeometry relative="1" as="geometry">
            <mxPoint x="760" y="940" as="targetPoint" />
          </mxGeometry>
        </mxCell>
        <mxCell id="N4IdexVW_4449klS3KBR-22" value="Нет" style="edgeLabel;html=1;align=center;verticalAlign=middle;resizable=0;points=[];fontSize=14;" vertex="1" connectable="0" parent="N4IdexVW_4449klS3KBR-21">
          <mxGeometry x="-0.3152" y="1" relative="1" as="geometry">
            <mxPoint as="offset" />
          </mxGeometry>
        </mxCell>
        <mxCell id="N4IdexVW_4449klS3KBR-23" style="edgeStyle=orthogonalEdgeStyle;rounded=0;orthogonalLoop=1;jettySize=auto;html=1;entryX=0.5;entryY=0;entryDx=0;entryDy=0;fontSize=14;" edge="1" parent="1" source="N4IdexVW_4449klS3KBR-25" target="N4IdexVW_4449klS3KBR-29">
          <mxGeometry relative="1" as="geometry" />
        </mxCell>
        <mxCell id="N4IdexVW_4449klS3KBR-24" value="Да" style="edgeLabel;html=1;align=center;verticalAlign=middle;resizable=0;points=[];fontSize=14;" vertex="1" connectable="0" parent="N4IdexVW_4449klS3KBR-23">
          <mxGeometry x="-0.2179" y="-5" relative="1" as="geometry">
            <mxPoint as="offset" />
          </mxGeometry>
        </mxCell>
        <mxCell id="N4IdexVW_4449klS3KBR-25" value="&lt;span style=&quot;font-size: 14px;&quot;&gt;Количество вложенных типов в множествах совпадают?&lt;/span&gt;" style="rhombus;whiteSpace=wrap;html=1;fontSize=14;" vertex="1" parent="1">
          <mxGeometry x="419" y="720" width="260" height="150" as="geometry" />
        </mxCell>
        <mxCell id="N4IdexVW_4449klS3KBR-26" style="edgeStyle=orthogonalEdgeStyle;rounded=0;orthogonalLoop=1;jettySize=auto;html=1;entryX=0;entryY=0.5;entryDx=0;entryDy=0;fontSize=14;" edge="1" parent="1" source="N4IdexVW_4449klS3KBR-27" target="N4IdexVW_4449klS3KBR-38">
          <mxGeometry relative="1" as="geometry">
            <Array as="points">
              <mxPoint x="750" y="1330" />
              <mxPoint x="-310" y="1330" />
              <mxPoint x="-310" y="870" />
            </Array>
          </mxGeometry>
        </mxCell>
        <mxCell id="N4IdexVW_4449klS3KBR-27" value="Типы-классы разные" style="rounded=0;whiteSpace=wrap;html=1;fontSize=14;" vertex="1" parent="1">
          <mxGeometry x="690" y="850" width="120" height="60" as="geometry" />
        </mxCell>
        <mxCell id="N4IdexVW_4449klS3KBR-28" style="edgeStyle=orthogonalEdgeStyle;rounded=0;orthogonalLoop=1;jettySize=auto;html=1;entryX=0.5;entryY=0;entryDx=0;entryDy=0;fontSize=14;" edge="1" parent="1" source="N4IdexVW_4449klS3KBR-29" target="N4IdexVW_4449klS3KBR-33">
          <mxGeometry relative="1" as="geometry" />
        </mxCell>
        <mxCell id="N4IdexVW_4449klS3KBR-29" value="&lt;span style=&quot;font-size: 14px;&quot;&gt;Для каждого из вложенных типов в множествах&lt;/span&gt;" style="shape=loopLimit;whiteSpace=wrap;html=1;fontSize=14;" vertex="1" parent="1">
          <mxGeometry x="200" y="820" width="160" height="100" as="geometry" />
        </mxCell>
        <mxCell id="N4IdexVW_4449klS3KBR-30" style="edgeStyle=orthogonalEdgeStyle;rounded=0;orthogonalLoop=1;jettySize=auto;html=1;entryX=1;entryY=0.5;entryDx=0;entryDy=0;fontSize=14;" edge="1" parent="1" source="N4IdexVW_4449klS3KBR-33" target="N4IdexVW_4449klS3KBR-35">
          <mxGeometry relative="1" as="geometry" />
        </mxCell>
        <mxCell id="N4IdexVW_4449klS3KBR-31" value="Нет" style="edgeLabel;html=1;align=center;verticalAlign=middle;resizable=0;points=[];fontSize=14;" vertex="1" connectable="0" parent="N4IdexVW_4449klS3KBR-30">
          <mxGeometry x="-0.1556" y="2" relative="1" as="geometry">
            <mxPoint x="-1" as="offset" />
          </mxGeometry>
        </mxCell>
        <mxCell id="N4IdexVW_4449klS3KBR-32" style="edgeStyle=orthogonalEdgeStyle;rounded=0;orthogonalLoop=1;jettySize=auto;html=1;entryX=0.5;entryY=1;entryDx=0;entryDy=0;fontSize=14;" edge="1" parent="1" source="N4IdexVW_4449klS3KBR-33" target="N4IdexVW_4449klS3KBR-37">
          <mxGeometry relative="1" as="geometry" />
        </mxCell>
        <mxCell id="N4IdexVW_4449klS3KBR-33" value="&lt;span style=&quot;font-size: 14px;&quot;&gt;В обоих множествах есть свойства одинаковые по виду типа (например, оба имеют тип integer, boolean или string)&lt;/span&gt;" style="rhombus;whiteSpace=wrap;html=1;spacingLeft=20;spacingRight=20;fontSize=14;" vertex="1" parent="1">
          <mxGeometry x="110" y="960" width="340" height="200" as="geometry" />
        </mxCell>
        <mxCell id="N4IdexVW_4449klS3KBR-34" style="edgeStyle=orthogonalEdgeStyle;rounded=0;orthogonalLoop=1;jettySize=auto;html=1;entryX=1;entryY=0.5;entryDx=0;entryDy=0;fontSize=14;" edge="1" parent="1" source="N4IdexVW_4449klS3KBR-35" target="N4IdexVW_4449klS3KBR-38">
          <mxGeometry relative="1" as="geometry" />
        </mxCell>
        <mxCell id="N4IdexVW_4449klS3KBR-35" value="Типы-классы разные" style="rounded=0;whiteSpace=wrap;html=1;fontSize=14;" vertex="1" parent="1">
          <mxGeometry x="-100" y="1030" width="120" height="60" as="geometry" />
        </mxCell>
        <mxCell id="N4IdexVW_4449klS3KBR-36" style="edgeStyle=orthogonalEdgeStyle;rounded=0;orthogonalLoop=1;jettySize=auto;html=1;fontSize=14;" edge="1" parent="1" source="N4IdexVW_4449klS3KBR-37" target="N4IdexVW_4449klS3KBR-40">
          <mxGeometry relative="1" as="geometry" />
        </mxCell>
        <mxCell id="N4IdexVW_4449klS3KBR-37" value="Завершение обработки множеств" style="shape=loopLimit;whiteSpace=wrap;html=1;direction=west;fontSize=14;" vertex="1" parent="1">
          <mxGeometry x="230" y="1210" width="100" height="80" as="geometry" />
        </mxCell>
        <mxCell id="N4IdexVW_4449klS3KBR-38" value="Возвращаем результат сравнения" style="rounded=0;whiteSpace=wrap;html=1;fontSize=14;" vertex="1" parent="1">
          <mxGeometry x="-290" y="840" width="120" height="60" as="geometry" />
        </mxCell>
        <mxCell id="N4IdexVW_4449klS3KBR-39" style="edgeStyle=orthogonalEdgeStyle;rounded=0;orthogonalLoop=1;jettySize=auto;html=1;entryX=0.5;entryY=1;entryDx=0;entryDy=0;fontSize=14;" edge="1" parent="1" source="N4IdexVW_4449klS3KBR-40" target="N4IdexVW_4449klS3KBR-38">
          <mxGeometry relative="1" as="geometry" />
        </mxCell>
        <mxCell id="N4IdexVW_4449klS3KBR-40" value="Типы-классы подобные" style="rounded=0;whiteSpace=wrap;html=1;fontSize=14;" vertex="1" parent="1">
          <mxGeometry y="1220" width="120" height="60" as="geometry" />
        </mxCell>
      </root>
    </mxGraphModel>
  </diagram>
</mxfile>
